<svg width="96" height="25" xmlns="http://www.w3.org/2000/svg"><path d="M66.704 1.19a1.45 1.45 0 01.153-.017c.057-.002.112-.005.165-.005.052 0 .108.003.17.005.06.004.111.01.153.017l1.036 2.508 1.043-2.508c.036-.007.083-.013.138-.017.057-.002.11-.005.163-.005.048 0 .102.003.16.005.06.004.11.01.151.017l.19 4.007a1.667 1.667 0 01-.552 0l-.128-3.115-.981 2.285a1.596 1.596 0 01-.44 0l-.948-2.302-.127 3.132a1.945 1.945 0 01-.258.022 1.579 1.579 0 01-.267-.022l.179-4.007zm4.436.518a1.055 1.055 0 01-.014-.144 3.729 3.729 0 010-.279.968.968 0 01.013-.14 2.455 2.455 0 01.301-.021 2.044 2.044 0 01.296.02c.007.043.012.09.014.141a3.645 3.645 0 010 .279c-.002.052-.007.1-.014.144a1.925 1.925 0 01-.596 0zm.123 1.065H70.9a.713.713 0 01-.017-.104 1.284 1.284 0 010-.228.695.695 0 01.017-.103h.903v2.86a1.743 1.743 0 01-.54 0V2.772zm3.271.051a1.088 1.088 0 00-.24-.067 1.542 1.542 0 00-.278-.023.886.886 0 00-.396.083.78.78 0 00-.277.228 1.004 1.004 0 00-.16.344 1.647 1.647 0 00-.053.432c.003.352.086.605.25.757.164.153.387.229.67.229.095 0 .184-.004.266-.013a1.38 1.38 0 00.218-.043V2.824zm0-1.712a2.149 2.149 0 01.272-.022 1.735 1.735 0 01.274.022v4.007a3.795 3.795 0 01-1.059.145c-.2 0-.391-.025-.571-.075a1.225 1.225 0 01-.472-.248 1.217 1.217 0 01-.317-.446 1.728 1.728 0 01-.117-.674c0-.231.034-.441.103-.63a1.41 1.41 0 01.293-.488c.126-.135.278-.24.454-.314a1.49 1.49 0 01.588-.113 1.982 1.982 0 01.552.08V1.111zM77.8 2.824a1.087 1.087 0 00-.24-.067 1.564 1.564 0 00-.28-.023.883.883 0 00-.395.083.774.774 0 00-.276.228 1.015 1.015 0 00-.161.344 1.658 1.658 0 00-.053.432c.004.352.087.605.25.757.164.153.387.229.67.229.096 0 .185-.004.267-.013a1.37 1.37 0 00.217-.043V2.824zm0-1.712a2.18 2.18 0 01.273-.022 1.727 1.727 0 01.273.022v4.007a3.714 3.714 0 01-1.059.145c-.2 0-.391-.025-.572-.075a1.216 1.216 0 01-.47-.248 1.2 1.2 0 01-.318-.446 1.718 1.718 0 01-.117-.674c0-.231.034-.441.103-.63a1.31 1.31 0 01.747-.802c.176-.075.372-.113.588-.113a1.984 1.984 0 01.551.08V1.111zm1.42 0a1.73 1.73 0 01.546 0v3.221c0 .105.01.186.028.245.019.06.044.106.076.136a.214.214 0 00.111.062.645.645 0 00.251.008.571.571 0 00.11-.016c.033.13.049.271.049.424a.868.868 0 01-.19.036 2.587 2.587 0 01-.206.008c-.107 0-.208-.013-.3-.039a.597.597 0 01-.413-.368.994.994 0 01-.062-.373V1.112zm3.5 2.38c0-.104-.014-.203-.042-.298a.745.745 0 00-.122-.249.602.602 0 00-.504-.234c-.227 0-.4.07-.521.207-.121.137-.195.328-.22.574h1.41zm-1.415.412c.007.312.088.54.242.686.154.145.382.217.683.217.264 0 .514-.047.753-.139a.886.886 0 01.072.203c.018.08.03.159.033.237a1.93 1.93 0 01-.404.117c-.147.026-.31.04-.487.04a1.82 1.82 0 01-.67-.11 1.194 1.194 0 01-.46-.307 1.215 1.215 0 01-.264-.468 1.995 1.995 0 01-.084-.592c0-.213.027-.411.081-.594.054-.184.137-.344.248-.48a1.19 1.19 0 01.421-.322c.17-.08.369-.12.6-.12.196 0 .369.032.517.1.15.067.273.159.374.275.1.118.176.257.228.418.053.162.079.338.079.528a5.867 5.867 0 01-.017.312h-1.945zm4.051-2.714h2.202c.01.074.017.155.017.245l-.003.129a.886.886 0 01-.014.123h-1.633v1.147h1.304a1.173 1.173 0 01.022.245 1.699 1.699 0 01-.022.252h-1.304V4.7h1.677c.011.075.017.157.017.245l-.003.128a.8.8 0 01-.014.123h-2.246V1.19zm4.454 2.665a3.989 3.989 0 00-.43-.034c-.23 0-.406.043-.527.127-.12.086-.18.216-.18.39 0 .112.02.2.06.263a.45.45 0 00.153.145.527.527 0 00.204.061 2.6 2.6 0 00.477-.003c.09-.009.172-.023.242-.041v-.908zm0-.542c0-.218-.056-.37-.168-.456-.111-.086-.274-.129-.485-.129-.13 0-.252.01-.365.031a2.56 2.56 0 00-.331.08.865.865 0 01-.106-.44c.126-.041.265-.072.417-.095a3.1 3.1 0 01.441-.033c.371 0 .653.084.847.254.193.169.29.439.29.811v1.79c-.13.028-.288.06-.474.09a3.29 3.29 0 01-.569.048 2.21 2.21 0 01-.493-.05 1.003 1.003 0 01-.374-.162.758.758 0 01-.236-.284.957.957 0 01-.084-.418c0-.16.033-.3.098-.42a.882.882 0 01.265-.302 1.2 1.2 0 01.384-.179c.145-.038.297-.057.457-.057.119 0 .217.003.293.008.076.006.14.012.192.02v-.107zm1.32 1.366a1.854 1.854 0 00.692.133c.084 0 .166-.01.244-.028a.612.612 0 00.204-.083.46.46 0 00.139-.136.327.327 0 00.053-.182.36.36 0 00-.042-.184.395.395 0 00-.112-.123.74.74 0 00-.16-.085 2.644 2.644 0 00-.199-.07l-.195-.073c-.237-.088-.41-.188-.518-.301a.62.62 0 01-.162-.45.74.74 0 01.271-.603c.18-.148.445-.223.794-.223.145 0 .287.015.426.042.14.027.261.061.365.097a1.398 1.398 0 01-.117.43 2.563 2.563 0 00-.292-.086 1.493 1.493 0 00-.366-.043.87.87 0 00-.365.072c-.106.05-.158.135-.158.257a.315.315 0 00.145.275.698.698 0 00.153.082c.057.023.12.044.186.067l.246.083c.089.03.173.065.254.106.079.04.148.092.205.153a.723.723 0 01.14.224.843.843 0 01.053.314.833.833 0 01-.32.666c-.103.08-.226.142-.371.187a1.618 1.618 0 01-.48.067 2.365 2.365 0 01-.841-.134 1.11 1.11 0 01.047-.226c.024-.076.051-.15.081-.225m2.692-1.901h-.435l-.022-.077.958-1.07h.045v.707h.724a.919.919 0 01.022.211 1.1 1.1 0 01-.022.229h-.724v1.304c0 .157.006.28.02.374a.553.553 0 00.066.215.233.233 0 00.128.1.655.655 0 00.204.025 1.527 1.527 0 00.328-.045c.027.074.043.15.048.229.005.079.008.147.008.206a1.837 1.837 0 01-.496.056c-.267 0-.477-.064-.627-.195-.15-.13-.225-.346-.225-.647V2.778zm1.196 9.56l-.87.247c-.834-2.969-2.226-4.242-4.21-4.242-1.39 0-2.365.955-2.365 2.476 0 1.448 1.148 2.227 4.244 3.534 2.854 1.096 4.036 2.44 4.036 4.773 0 3.57-2.678 5.798-7.097 5.798-2.123 0-4.524-.494-5.88-1.06l-.174-4.95.835-.176c1.252 3.393 2.853 4.666 4.94 4.666 1.81 0 2.749-1.308 2.749-2.652 0-1.343-.731-2.121-3.55-3.182-2.678-.919-4.522-2.121-4.522-5.09 0-2.934 2.47-5.409 6.68-5.409 1.983 0 3.792.353 4.976.92l.208 4.347zm-18.16 1.556c.103-2.333-.35-5.693-2.193-5.693-1.88 0-2.923 3.147-2.958 5.834l5.15-.141zM75.116 7.07c4.627 0 6.854 3.535 6.89 8.167H71.602c-.034 4.1 2.053 7.21 5.95 7.21 1.705 0 2.68-.494 3.722-1.271l.488.565c-1.149 1.627-3.514 3.182-6.68 3.182-5.08 0-8.594-3.641-8.594-8.767 0-4.632 2.888-9.086 8.628-9.086zm-14.995 8.59c-.105-3.676-1.392-6.576-3.862-6.576-.592 0-1.044.106-1.74.355 0 5.868.07 12.514.21 14.106.243.105.834.176 1.251.176 2.401 0 4.14-3.536 4.14-8.06zm5.15-.283c0 5.799-3.516 9.546-9.464 9.546-2.123 0-4.315-.354-6.228-.812.174-2.334.174-16.759 0-19.48-.175-1.415-.557-2.087-1.601-2.229l-.696-.07v-.636L54.625.282c-.035 1.203-.105 4.35-.105 8.061 1.288-.671 2.47-1.06 4.07-1.06 3.828 0 6.681 3.394 6.681 8.095zm-18.685-3.146c-2.261-1.555-4.697-.884-5.184 0-.209 2.722-.174 6.894.035 9.05.104 1.414.487 2.016 1.53 2.122l1.392.142v.919H33.992v-.919l.8-.142c1.01-.106 1.357-.708 1.427-2.121.243-2.298.313-7.106 0-9.758-.07-1.52-.418-2.085-1.427-2.227l-.8-.107v-.635l7.41-1.485-.103 3.96c1.739-4.102 5.184-4.596 7.063-3.5l-1.775 4.701zm-24.32 3.783c0 4.313 1.113 7.85 3.375 7.85 2.436 0 3.132-3.466 3.132-7.85 0-4.383-1.08-7.814-3.376-7.814-2.435 0-3.131 3.36-3.131 7.814zm11.76-.071c0 4.95-3.132 8.98-8.733 8.98-5.497 0-8.28-3.818-8.28-8.839 0-4.913 3.13-9.014 8.732-9.014 5.498 0 8.281 3.853 8.281 8.873zM19.623 7.88l-1.148.353c-.974-3.464-2.68-5.445-5.637-5.445H8.976c-.209 2.299-.313 5.869-.209 9.723l2.575-.141c1.74 0 2.47-1.309 2.888-3.219h.974v8.026h-.974c-.417-1.944-1.148-3.252-2.888-3.357l-2.575-.037c0 2.864.035 5.303.21 6.788.173 2.121.73 3.076 2.226 3.288l1.392.143v.918H0v-.918l1.043-.143c1.462-.212 2.053-1.167 2.227-3.288.279-3.464.348-10.854 0-14.954-.174-2.192-.765-3.077-2.227-3.253L0 2.188v-.955h19.588l.035 6.647z" fill="#FFF" fill-rule="evenodd"/></svg>